<?xml version="1.0"?>
<svg xmlns="http://www.w3.org/2000/svg" xmlns:xlink="http://www.w3.org/1999/xlink" width="688.0799999999999" height="327.12" id="svgcontent" overflow="hidden" x="0" y="0" viewBox="0 0 1464 696" ><g style="pointer-events:none"><title style="pointer-events:inherit">background</title><rect display="inline" fill="#cf3442" id="canvas_background" stroke-width="0" height="696" width="1464" y="0" x="0" style="pointer-events:inherit"/></g><g style="pointer-events:all" ><title style="pointer-events:inherit" >Layer 1</title><g stroke="null" yscale="0.74738" xscale="0.74738" elemBBoxHeight="76.82294" elemBBoxWidth="617.99396"  shapeVal="0" shapeId="0" lineHeight="1" font-style="normal" font-weight="normal" text-anchor="start" fill="0" font-family="Arvo" font-size="104.74237" text="Morgan amp: James" type="text" id="svg_1" style="pointer-events:inherit"><path stroke="null" d="M801.55545,111.16171C801.55545,111.16171 806.99171,111.16171 806.99171,111.16171C806.99171,111.16171 806.99171,67.01929 806.99171,67.01929C806.99171,67.01929 801.55545,67.01929 801.55545,67.01929C801.55545,67.01929 801.55545,59.84343 801.55545,59.84343C801.55545,59.84343 820.03873,59.84343 820.03873,59.84343C820.03873,59.84343 838.30456,109.85701 838.30456,109.85701C838.30456,109.85701 857.00529,59.84343 857.00529,59.84343C857.00529,59.84343 874.40132,59.84343 874.40132,59.84343C874.40132,59.84343 874.40132,67.01929 874.40132,67.01929C874.40132,67.01929 868.96506,67.01929 868.96506,67.01929C868.96506,67.01929 868.96506,111.16171 868.96506,111.16171C868.96506,111.16171 874.40132,111.16171 874.40132,111.16171C874.40132,111.16171 874.40132,117.68522 874.40132,117.68522C874.40132,117.68522 855.48314,117.68522 855.48314,117.68522C855.48314,117.68522 855.48314,111.16171 855.48314,111.16171C855.48314,111.16171 861.7892,111.16171 861.7892,111.16171C861.7892,111.16171 861.7892,66.58438 861.7892,66.58438C861.7892,66.58438 841.34887,117.68522 841.34887,117.68522C841.34887,117.68522 835.04281,117.68522 835.04281,117.68522C835.04281,117.68522 814.38503,66.58438 814.38503,66.58438C814.38503,66.58438 814.38503,111.16171 814.38503,111.16171C814.38503,111.16171 820.47364,111.16171 820.47364,111.16171C820.47364,111.16171 820.47364,117.68522 820.47364,117.68522C820.47364,117.68522 801.55546,117.68522 801.55546,117.68522C801.55546,117.68522 801.55546,111.16171 801.55546,111.16171C801.55546,111.16171 801.55546,111.16171 801.55546,111.16171M902.88733,118.77247C890.05776,118.77247 882.8819,110.50936 882.8819,97.89723C882.8819,85.28511 890.05776,77.02199 902.88733,77.02199C915.7169,77.02199 922.67531,85.2851 922.67531,97.89723C922.67531,110.2919 915.49945,118.77247 902.88733,118.77247C902.88733,118.77247 902.88733,118.77247 902.88733,118.77247M902.88733,83.11061C894.40677,83.11061 890.71011,89.19922 890.49266,97.89724C890.49266,106.59525 894.84167,112.68387 902.88733,112.68387C911.36789,112.68387 915.282,106.37781 915.282,97.89724C915.282,89.41668 911.36789,83.11061 902.88733,83.11061C902.88733,83.11061 902.88733,83.11061 902.88733,83.11061M942.8982,83.54551C945.0727,78.54415 950.94386,76.80455 958.77208,77.8918C958.77208,77.8918 958.77208,86.37236 958.77208,86.37236C958.77208,86.37236 951.37877,86.37236 951.37877,86.37236C951.37877,86.37236 951.37877,83.98041 951.37877,83.98041C940.07135,84.41531 943.55056,100.07174 943.11566,111.16171C943.11566,111.16171 949.85662,111.16171 949.85662,111.16171C949.85662,111.16171 949.85662,117.68522 949.85662,117.68522C949.85662,117.68522 930.28609,117.68522 930.28609,117.68522C930.28609,117.68522 930.28609,111.16171 930.28609,111.16171C930.28609,111.16171 935.72235,111.16171 935.72235,111.16171C935.72235,111.16171 935.72235,84.63277 935.72235,84.63277C935.72235,84.63277 930.28609,84.63277 930.28609,84.63277C930.28609,84.63277 930.28609,78.10926 930.28609,78.10926C930.28609,78.10926 942.89821,78.10926 942.89821,78.10926C942.89821,78.10926 942.89821,83.54552 942.89821,83.54552C942.89821,83.54552 942.89821,83.54552 942.89821,83.54552M984.21378,128.3403C993.56415,128.3403 995.9561,123.33894 995.73865,114.20603C993.3467,116.59798 990.08494,118.77249 985.30103,118.55504C972.68891,118.33759 967.0352,110.07448 966.38285,97.46235C965.2956,80.93612 982.69163,72.23811 995.73865,80.06632C995.73865,80.06632 995.73865,78.10927 995.73865,78.10927C995.73865,78.10927 1002.91451,78.10927 1002.91451,78.10927C1001.17491,103.11606 1011.82998,140.08262 980.08222,134.86382C975.29831,133.99402 970.5144,132.68932 967.68755,129.64501C967.68755,129.64501 971.38421,123.77385 971.38421,123.77385C974.42852,126.38325 978.56007,128.34031 984.21378,128.34031C984.21378,128.34031 984.21378,128.34031 984.21378,128.34031M973.77616,97.46236C971.81911,110.94428 988.34533,116.81544 995.73865,108.33488C995.73865,108.33488 995.73865,86.58984 995.73865,86.58984C987.47554,79.84888 972.25401,84.63279 973.77616,97.46236C973.77616,97.46236 973.77616,97.46236 973.77616,97.46236M1035.74951,94.85296C1038.35891,81.80594 1022.91994,81.80594 1016.17898,86.3724C1016.17898,86.3724 1013.78703,81.37104 1013.78703,81.37104C1022.91995,74.84753 1043.14283,75.06498 1042.92538,91.37376C1042.92538,91.37376 1042.70793,111.16174 1042.70793,111.16174C1042.70793,111.16174 1047.27439,111.16174 1047.27439,111.16174C1047.27439,111.16174 1047.27439,117.68525 1047.27439,117.68525C1047.27439,117.68525 1035.74952,117.68525 1035.74952,117.68525C1035.74952,117.68525 1035.74952,113.98859 1035.74952,113.98859C1029.44346,121.8168 1010.96018,119.6423 1011.17763,107.24763C1011.17763,95.28786 1024.22465,92.89591 1035.74952,94.85296C1035.74952,94.85296 1035.74952,94.85296 1035.74952,94.85296M1018.13604,106.59528C1018.13604,115.51075 1032.27031,113.33624 1035.74952,108.55233C1035.74952,108.55233 1035.74952,99.63686 1035.74952,99.63686C1027.70386,99.63686 1018.13604,98.54961 1018.13604,106.59527C1018.13604,106.59527 1018.13604,106.59527 1018.13604,106.59527M1067.71472,82.67573C1076.19528,73.76026 1094.02621,76.36967 1094.02621,92.24355C1094.02621,92.24355 1094.02621,111.16173 1094.02621,111.16173C1094.02621,111.16173 1099.67992,111.16173 1099.67992,111.16173C1099.67992,111.16173 1099.67992,117.68524 1099.67992,117.68524C1099.67992,117.68524 1080.97919,117.68524 1080.97919,117.68524C1080.97919,117.68524 1080.97919,111.16173 1080.97919,111.16173C1080.97919,111.16173 1086.6329,111.16173 1086.6329,111.16173C1085.98055,99.85431 1090.11211,83.32808 1077.71743,83.76298C1073.80332,83.76298 1070.54157,86.15493 1067.93216,87.89454C1067.93216,87.89454 1067.93216,111.16173 1067.93216,111.16173C1067.93216,111.16173 1073.58587,111.16173 1073.58587,111.16173C1073.58587,111.16173 1073.58587,117.68524 1073.58587,117.68524C1073.58587,117.68524 1055.10259,117.68524 1055.10259,117.68524C1055.10259,117.68524 1055.10259,111.16173 1055.10259,111.16173C1055.10259,111.16173 1060.53885,111.16173 1060.53885,111.16173C1060.53885,111.16173 1060.53885,84.63279 1060.53885,84.63279C1060.53885,84.63279 1055.10259,84.63279 1055.10259,84.63279C1055.10259,84.63279 1055.10259,78.10928 1055.10259,78.10928C1055.10259,78.10928 1067.71471,78.10928 1067.71471,78.10928C1067.71471,78.10928 1067.71471,82.67574 1067.71471,82.67574C1067.71471,82.67574 1067.71471,82.67574 1067.71471,82.67574M1169.69893,88.5469C1168.82913,93.98316 1166.65462,99.20197 1164.26267,103.55098C1164.26267,103.55098 1174.91774,113.33625 1174.91774,113.33625C1174.91774,113.33625 1169.48148,117.90271 1169.48148,117.90271C1169.48148,117.90271 1160.56601,109.2047 1160.56601,109.2047C1156.6519,113.98861 1151.868,118.12017 1143.60488,118.12017C1133.16726,118.12017 1125.77395,112.03156 1125.77395,101.37649C1125.77395,92.89593 1130.34041,89.41672 1136.64647,85.93751C1133.16726,82.67575 1128.81826,79.63145 1128.81826,73.10794C1128.81826,64.40993 1134.90687,58.53877 1144.03979,58.53877C1152.95526,58.53877 1159.26132,63.97503 1159.47877,73.10794C1159.69622,82.02341 1153.39016,84.85026 1147.73645,88.11202C1147.73645,88.11202 1159.47877,98.98454 1159.47877,98.98454C1161.00092,95.50533 1161.87072,92.24358 1162.52308,88.54692C1162.52308,88.54692 1169.69894,88.54692 1169.69894,88.54692C1169.69894,88.54692 1169.69894,88.54692 1169.69894,88.54692M1138.38609,92.24358C1127.07867,97.89729 1134.68943,115.29332 1147.51901,111.16176C1150.99822,110.07451 1154.04252,107.4651 1155.99957,104.8557C1155.99957,104.8557 1141.4304,90.72143 1141.4304,90.72143C1141.4304,90.72143 1138.38609,92.24358 1138.38609,92.24358M1142.51765,83.32811C1147.08411,81.15361 1152.08547,79.19655 1152.73782,73.10794C1152.08547,68.54148 1149.04116,65.06228 1144.03981,64.84483C1135.55925,64.40993 1132.94984,75.4999 1139.03845,80.06636C1139.03845,80.06636 1142.51766,83.32812 1142.51766,83.32812M1199.05476,59.84348C1199.05476,59.84348 1217.97294,59.84348 1217.97294,59.84348C1217.97294,59.84348 1217.97294,66.36699 1217.97294,66.36699C1217.97294,66.36699 1212.97158,66.36699 1212.97158,66.36699C1212.97158,66.36699 1212.75413,113.11882 1212.75413,113.11882C1210.57963,118.33763 1207.31787,122.25174 1203.83866,126.81819C1203.83866,126.81819 1197.31515,126.16584 1197.31515,126.16584C1200.57691,120.72958 1204.05611,116.81547 1205.36081,109.85706C1205.36081,109.85706 1205.36081,66.36699 1205.36081,66.36699C1205.36081,66.36699 1199.05475,66.36699 1199.05475,66.36699C1199.05475,66.36699 1199.05475,59.84348 1199.05475,59.84348C1199.05475,59.84348 1199.05475,59.84348 1199.05475,59.84348M1246.45893,94.85299C1249.06833,81.80597 1233.62936,81.80597 1226.8884,86.37243C1226.8884,86.37243 1224.49645,81.37107 1224.49645,81.37107C1233.62937,74.84756 1253.85225,75.06501 1253.6348,91.37379C1253.6348,91.37379 1253.41735,111.16177 1253.41735,111.16177C1253.41735,111.16177 1257.98381,111.16177 1257.98381,111.16177C1257.98381,111.16177 1257.98381,117.68528 1257.98381,117.68528C1257.98381,117.68528 1246.45894,117.68528 1246.45894,117.68528C1246.45894,117.68528 1246.45894,113.98862 1246.45894,113.98862C1240.15288,121.81683 1221.6696,119.64233 1221.88705,107.24766C1221.88705,95.28789 1234.93407,92.89594 1246.45894,94.85299C1246.45894,94.85299 1246.45894,94.85299 1246.45894,94.85299M1228.84546,106.59531C1228.84546,115.51078 1242.97973,113.33627 1246.45894,108.55236C1246.45894,108.55236 1246.45894,99.63689 1246.45894,99.63689C1238.41328,99.63689 1228.84546,98.54964 1228.84546,106.5953C1228.84546,106.5953 1228.84546,106.5953 1228.84546,106.5953M1297.34233,93.11338C1298.21213,81.80596 1283.86041,82.45831 1278.6416,87.89457C1278.6416,87.89457 1278.6416,111.16176 1278.6416,111.16176C1278.6416,111.16176 1284.29531,111.16176 1284.29531,111.16176C1284.29531,111.16176 1284.29531,117.68527 1284.29531,117.68527C1284.29531,117.68527 1265.81203,117.68527 1265.81203,117.68527C1265.81203,117.68527 1265.81203,111.16176 1265.81203,111.16176C1265.81203,111.16176 1271.24829,111.16176 1271.24829,111.16176C1271.24829,111.16176 1271.24829,84.63282 1271.24829,84.63282C1271.24829,84.63282 1265.81203,84.63282 1265.81203,84.63282C1265.81203,84.63282 1265.81203,78.10931 1265.81203,78.10931C1265.81203,78.10931 1278.42415,78.10931 1278.42415,78.10931C1278.42415,78.10931 1278.42415,82.67577 1278.42415,82.67577C1283.42551,76.58716 1299.73429,74.84756 1302.99604,83.98047C1309.95445,74.84755 1330.82969,74.41265 1330.82969,92.24358C1330.82969,92.24358 1330.82969,111.16176 1330.82969,111.16176C1330.82969,111.16176 1336.4834,111.16176 1336.4834,111.16176C1336.4834,111.16176 1336.4834,117.68527 1336.4834,117.68527C1336.4834,117.68527 1318.00012,117.68527 1318.00012,117.68527C1318.00012,117.68527 1318.00012,111.16176 1318.00012,111.16176C1318.00012,111.16176 1323.43638,111.16176 1323.43638,111.16176C1322.78403,99.85434 1327.13304,83.11066 1314.52091,83.76301C1310.6068,83.76301 1306.91015,85.93751 1304.73564,88.11202C1304.73564,88.11202 1304.73564,111.16176 1304.73564,111.16176C1304.73564,111.16176 1310.1719,111.16176 1310.1719,111.16176C1310.1719,111.16176 1310.1719,117.68527 1310.1719,117.68527C1310.1719,117.68527 1291.68862,117.68527 1291.68862,117.68527C1291.68862,117.68527 1291.68862,111.16176 1291.68862,111.16176C1291.68862,111.16176 1297.34233,111.16176 1297.34233,111.16176C1297.34233,111.16176 1297.34233,93.11338 1297.34233,93.11338C1297.34233,93.11338 1297.34233,93.11338 1297.34233,93.11338M1362.35999,77.02205C1375.40701,76.8046 1379.10367,86.15497 1379.32112,98.76709C1379.32112,98.76709 1350.83512,98.76709 1350.83512,98.76709C1349.53042,112.90136 1366.2741,115.07587 1375.40701,108.76981C1375.40701,108.76981 1378.23386,113.55372 1378.23386,113.55372C1373.6674,116.59803 1369.10094,118.55508 1362.35998,118.77253C1349.74786,118.55508 1343.65925,110.50942 1343.65925,97.67984C1343.65925,85.50262 1350.18276,77.23951 1362.35998,77.02206C1362.35998,77.02206 1362.35998,77.02206 1362.35998,77.02206M1371.71035,93.33084C1373.2325,82.24087 1355.61902,79.41402 1352.35727,88.98183C1351.92237,90.28653 1351.27002,91.80868 1351.05257,93.33084C1351.05257,93.33084 1371.71035,93.33084 1371.71035,93.33084C1371.71035,93.33084 1371.71035,93.33084 1371.71035,93.33084M1418.89708,107.03021C1418.89708,120.07723 1396.93459,122.46919 1392.15068,113.33627C1392.15068,113.33627 1388.01912,113.33627 1388.01912,113.33627C1388.01912,113.33627 1388.01912,106.81276 1388.01912,106.81276C1388.01912,106.81276 1396.06478,106.81276 1396.06478,106.81276C1396.06478,111.37922 1399.76144,112.90137 1404.32789,112.90137C1409.76415,112.90137 1413.67826,108.76981 1410.63395,104.42081C1404.11044,99.202 1389.75871,100.0718 1389.75871,88.54693C1389.75871,75.28246 1410.19904,73.54285 1415.85275,82.24087C1415.85275,82.24087 1419.54941,82.24087 1419.54941,82.24087C1419.54941,82.24087 1419.54941,88.76438 1419.54941,88.76438C1419.54941,88.76438 1411.7212,88.76438 1411.7212,88.76438C1411.93865,81.37107 1396.71712,80.50127 1396.49967,87.89458C1399.54398,97.8973 1418.89706,92.67849 1418.89706,107.03021C1418.89706,107.03021 1418.89706,107.03021 1418.89706,107.03021" stroke-width="0" fill="#000000" id="svg_4" style="pointer-events:inherit"/><rect stroke="null" opacity="0" fill="#000000" height="76.82294" width="617.99396" y="58.53872" x="801.55545" id="svg_5" style="pointer-events:inherit"/></g><g stroke="null" yscale="0.35913" xscale="0.35913" elemBBoxHeight="59.5379" elemBBoxWidth="303.85522"  shapeVal="0" shapeId="0" lineHeight="1" font-style="normal" font-weight="normal" text-anchor="start" fill="0" font-family="Arvo" font-size="213.74589" text="Realtors" type="text" id="svg_6" style="pointer-events:inherit"><path stroke="null" d="M1040.48765,194.88365C1040.27442,202.13353 1035.58332,205.9717 1030.25253,208.10402C1037.07595,211.51573 1037.50241,221.53762 1039.84796,229.21396C1039.84796,229.21396 1044.75229,229.21396 1044.75229,229.21396C1044.75229,229.21396 1044.75229,236.25061 1044.75229,236.25061C1044.75229,236.25061 1033.66424,236.25061 1033.66424,236.25061C1029.82607,226.65518 1032.17162,210.44957 1019.37771,210.02311C1019.37771,210.02311 1012.12783,210.02311 1012.12783,210.02311C1012.12783,210.02311 1012.12783,229.85366 1012.12783,229.85366C1012.12783,229.85366 1017.88509,229.85366 1017.88509,229.85366C1017.88509,229.85366 1017.88509,236.25061 1017.88509,236.25061C1017.88509,236.25061 999.33393,236.25061 999.33393,236.25061C999.33393,236.25061 999.33393,229.85366 999.33393,229.85366C999.33393,229.85366 1004.66472,229.85366 1004.66472,229.85366C1004.66472,229.85366 1004.66472,185.92792 1004.66472,185.92792C1004.66472,185.92792 999.33393,185.92792 999.33393,185.92792C999.33393,185.92792 999.33393,179.53097 999.33393,179.53097C1017.67186,179.95743 1041.12735,175.47957 1040.48766,194.88366C1040.48766,194.88366 1040.48766,194.88366 1040.48766,194.88366M1032.81132,194.88366C1032.81132,184.86177 1022.14973,185.7147 1012.12784,185.92793C1012.12784,185.92793 1012.12784,203.8394 1012.12784,203.8394C1022.14973,204.05263 1032.81132,204.90556 1032.81132,194.88367C1032.81132,194.88367 1032.81132,194.88367 1032.81132,194.88367M1070.34011,196.37629C1083.13401,196.16306 1086.75895,205.33202 1086.97219,217.69946C1086.97219,217.69946 1059.03883,217.69946 1059.03883,217.69946C1057.75944,231.55952 1074.17828,233.69184 1083.13402,227.50812C1083.13402,227.50812 1085.90603,232.19922 1085.90603,232.19922C1081.42816,235.18446 1076.9503,237.10355 1070.34011,237.31678C1057.97267,237.10355 1052.00218,229.21397 1052.00218,216.6333C1052.00218,204.69232 1058.39913,196.58952 1070.34011,196.37628C1070.34011,196.37628 1070.34011,196.37628 1070.34011,196.37628M1079.50907,212.36866C1081.00169,201.49384 1063.72992,198.72183 1060.53145,208.10403C1060.10499,209.38342 1059.46529,210.87604 1059.25206,212.36866C1059.25206,212.36866 1079.50908,212.36866 1079.50908,212.36866C1079.50908,212.36866 1079.50908,212.36866 1079.50908,212.36866M1119.17018,213.86128C1121.72896,201.06738 1106.58951,201.06738 1099.97932,205.54524C1099.97932,205.54524 1097.63377,200.64091 1097.63377,200.64091C1106.5895,194.24396 1126.42005,194.45719 1126.20682,210.44957C1126.20682,210.44957 1125.99359,229.85366 1125.99359,229.85366C1125.99359,229.85366 1130.47146,229.85366 1130.47146,229.85366C1130.47146,229.85366 1130.47146,236.25061 1130.47146,236.25061C1130.47146,236.25061 1119.17018,236.25061 1119.17018,236.25061C1119.17018,236.25061 1119.17018,232.62567 1119.17018,232.62567C1112.98646,240.30201 1094.86176,238.1697 1095.07499,226.01549C1095.07499,214.28774 1107.86889,211.9422 1119.17018,213.86128C1119.17018,213.86128 1119.17018,213.86128 1119.17018,213.86128M1101.89841,225.37579C1101.89841,234.11829 1115.75847,231.98597 1119.17018,227.29488C1119.17018,227.29488 1119.17018,218.55238 1119.17018,218.55238C1111.28061,218.55238 1101.89841,217.48622 1101.89841,225.3758C1101.89841,225.3758 1101.89841,225.3758 1101.89841,225.3758M1137.72134,177.82512C1137.72134,177.82512 1150.30201,177.82512 1150.30201,177.82512C1150.30201,177.82512 1150.30201,229.85366 1150.30201,229.85366C1150.30201,229.85366 1156.2725,229.85366 1156.2725,229.85366C1156.2725,229.85366 1156.2725,236.25061 1156.2725,236.25061C1156.2725,236.25061 1137.72134,236.25061 1137.72134,236.25061C1137.72134,236.25061 1137.72134,229.85366 1137.72134,229.85366C1137.72134,229.85366 1143.4786,229.85366 1143.4786,229.85366C1143.4786,229.85366 1143.4786,184.4353 1143.4786,184.4353C1143.4786,184.4353 1137.72134,184.4353 1137.72134,184.4353C1137.72134,184.4353 1137.72134,177.82512 1137.72134,177.82512C1137.72134,177.82512 1137.72134,177.82512 1137.72134,177.82512M1185.91171,235.18446C1177.59567,239.66233 1166.93409,236.67708 1167.14732,224.52287C1167.14732,224.52287 1167.36055,202.98646 1167.36055,202.98646C1167.36055,202.98646 1161.17683,202.98646 1161.17683,202.98646C1161.17683,202.98646 1161.17683,197.44243 1161.17683,197.44243C1161.17683,197.44243 1167.36055,197.44243 1167.36055,197.44243C1167.36055,197.44243 1167.36055,188.06023 1167.36055,188.06023C1167.36055,188.06023 1174.18397,184.86175 1174.18397,184.86175C1174.18397,184.86175 1174.18397,197.44242 1174.18397,197.44242C1174.18397,197.44242 1183.35293,197.44242 1183.35293,197.44242C1183.35293,197.44242 1183.35293,202.98645 1183.35293,202.98645C1183.35293,202.98645 1174.18397,202.98645 1174.18397,202.98645C1174.18397,202.98645 1173.97074,225.58901 1173.97074,225.58901C1173.11781,231.98596 1179.94123,232.83889 1184.20586,230.49334C1184.20586,230.49334 1185.91171,235.18444 1185.91171,235.18444M1210.43336,237.31676C1197.85269,237.31676 1190.81604,229.21395 1190.81604,216.84651C1190.81604,204.47907 1197.85269,196.37626 1210.43336,196.37626C1223.01403,196.37626 1229.83745,204.47907 1229.83745,216.84651C1229.83745,229.00072 1222.8008,237.31676 1210.43336,237.31676C1210.43336,237.31676 1210.43336,237.31676 1210.43336,237.31676M1210.43336,202.34675C1202.11732,202.34675 1198.49238,208.31724 1198.27915,216.84651C1198.27915,225.37578 1202.54378,231.34627 1210.43336,231.34627C1218.7494,231.34627 1222.58757,225.16255 1222.58757,216.84651C1222.58757,208.53047 1218.7494,202.34675 1210.43336,202.34675C1210.43336,202.34675 1210.43336,202.34675 1210.43336,202.34675M1249.668,202.77321C1251.80032,197.86888 1257.55757,196.16303 1265.23392,197.22918C1265.23392,197.22918 1265.23392,205.54522 1265.23392,205.54522C1265.23392,205.54522 1257.98404,205.54522 1257.98404,205.54522C1257.98404,205.54522 1257.98404,203.19967 1257.98404,203.19967C1246.89599,203.62613 1250.3077,218.97882 1249.88123,229.85364C1249.88123,229.85364 1256.49141,229.85364 1256.49141,229.85364C1256.49141,229.85364 1256.49141,236.25059 1256.49141,236.25059C1256.49141,236.25059 1237.30055,236.25059 1237.30055,236.25059C1237.30055,236.25059 1237.30055,229.85364 1237.30055,229.85364C1237.30055,229.85364 1242.63134,229.85364 1242.63134,229.85364C1242.63134,229.85364 1242.63134,203.83937 1242.63134,203.83937C1242.63134,203.83937 1237.30055,203.83937 1237.30055,203.83937C1237.30055,203.83937 1237.30055,197.44242 1237.30055,197.44242C1237.30055,197.44242 1249.66799,197.44242 1249.66799,197.44242C1249.66799,197.44242 1249.66799,202.77321 1249.66799,202.77321C1249.66799,202.77321 1249.66799,202.77321 1249.66799,202.77321M1302.54946,225.80224C1302.54946,238.59614 1281.01305,240.94169 1276.32196,231.98596C1276.32196,231.98596 1272.27056,231.98596 1272.27056,231.98596C1272.27056,231.98596 1272.27056,225.58901 1272.27056,225.58901C1272.27056,225.58901 1280.16013,225.58901 1280.16013,225.58901C1280.16013,230.06688 1283.78507,231.5595 1288.26294,231.5595C1293.59373,231.5595 1297.4319,227.5081 1294.44666,223.24346C1288.04971,218.1259 1273.97641,218.97883 1273.97641,207.67754C1273.97641,194.6704 1294.02019,192.96455 1299.56422,201.49382C1299.56422,201.49382 1303.18916,201.49382 1303.18916,201.49382C1303.18916,201.49382 1303.18916,207.89077 1303.18916,207.89077C1303.18916,207.89077 1295.51282,207.89077 1295.51282,207.89077C1295.72605,200.64089 1280.79983,199.78796 1280.5866,207.03784C1283.57184,216.8465 1302.54947,211.72894 1302.54947,225.80223C1302.54947,225.80223 1302.54947,225.80223 1302.54947,225.80223" stroke-width="0" fill="#000000" id="svg_9" style="pointer-events:inherit"/><rect stroke="null" opacity="0" fill="#000000" height="59.53789" width="303.85522" y="177.82511" x="999.33392" id="svg_10" style="pointer-events:inherit"/></g><g stroke="null" yscale="0.70249" xscale="0.70249" elemBBoxHeight="108.87741" elemBBoxWidth="514.22217"  shapeVal="0" shapeId="0" lineHeight="1" font-style="normal" font-weight="normal" text-anchor="start" fill="0" font-family="Brush-Script" font-size="166.2961" text="Pepe Jeans" type="text" id="svg_11" style="pointer-events:inherit"><path stroke="null" d="M512.74538,545.40675C509.12392,543.65443 505.61928,538.5143 509.0071,534.30873C512.39492,530.10317 519.63783,528.70131 526.17982,526.71535C526.17982,526.71535 544.63758,502.41653 544.63758,502.41653C531.78724,503.58474 519.05373,506.03799 508.53982,509.65945C506.90432,510.24356 503.86697,510.82766 503.28286,509.07534C504.80154,503.3511 509.59121,497.97732 512.62856,493.88858C520.10512,488.63162 538.32923,486.06156 552.23096,486.06156C570.45507,486.06156 588.67919,489.91666 587.86144,509.30899C586.57641,539.44887 553.74964,550.66371 520.92287,547.27589C520.92287,547.27589 516.01638,554.98609 516.01638,554.98609C521.74062,558.37391 512.97903,564.68225 510.87625,568.30371C509.35757,569.70556 507.60526,571.5747 505.50247,571.80835C496.62406,569.47193 505.15201,557.55616 507.60525,553.58424C507.60525,553.58424 512.74538,545.40675 512.74538,545.40675M574.66064,505.10342C568.00183,502.88382 559.70752,502.29971 551.29639,501.94925C551.17957,504.51932 550.82911,505.80435 549.66089,507.32303C549.66089,507.32303 536.57691,525.07986 536.57691,525.07986C536.57691,525.07986 543.70301,524.61258 543.70301,524.61258C546.03943,524.49576 545.92261,526.83218 543.93665,527.29947C543.93665,527.29947 533.89002,529.86954 533.89002,529.86954C533.89002,529.86954 531.31995,533.60782 531.31995,533.60782C553.63281,535.94424 573.02513,529.28543 578.98302,512.69682C580.38487,508.60808 578.8662,506.62212 574.66063,505.10344C574.66063,505.10344 574.66063,505.10344 574.66063,505.10344M624.77694,548.09366C624.77694,548.09366 624.5433,553.00015 624.5433,553.00015C616.24899,558.95803 609.00607,567.71963 595.9221,567.71963C586.81004,567.71963 583.07176,562.34585 582.60448,553.11697C581.78673,536.87882 598.95945,522.27616 614.6135,522.27616C618.70224,522.27616 621.85642,523.91166 621.85642,527.64994C621.85642,541.2012 605.15098,544.93948 594.05296,549.26187C592.88475,554.63565 595.9221,558.02346 601.17906,557.90664C611.10887,557.78982 618.23496,552.1824 624.77695,548.09366C624.77695,548.09366 624.77695,548.09366 624.77695,548.09366M612.16026,530.45365C612.04344,528.23405 609.35655,529.16862 607.72105,529.86954C602.23045,532.43961 597.79124,537.81338 595.22118,543.53763C601.06224,541.31803 606.78648,537.69657 610.52476,533.72465C611.57615,532.43962 612.16026,531.38823 612.16026,530.45366C612.16026,530.45366 612.16026,530.45366 612.16026,530.45366M680.85115,548.09367C680.85115,548.09367 680.61751,553.00016 680.61751,553.00016C672.44002,558.60758 663.91207,566.31778 651.06174,566.66825C647.44028,566.66825 645.3375,565.73368 642.76743,564.44865C639.37961,565.2664 636.10862,565.38322 632.7208,564.44865C632.7208,564.44865 621.1555,586.64469 621.1555,586.64469C619.40318,588.98111 619.16954,590.26615 616.71629,590.26615C614.49669,590.26615 612.97801,588.04655 613.32847,585.47648C615.66489,567.01872 630.96848,556.9721 637.97775,542.60308C633.77219,546.34136 628.98251,549.61235 624.54331,553.11699C624.30967,551.36467 624.42649,549.846 624.66013,548.09368C639.84689,538.51434 644.05246,523.4444 656.31869,511.52863C658.53829,509.30903 665.89803,509.42585 665.78121,513.39777C663.09432,519.35565 653.98226,525.07989 650.59445,532.20599C650.59445,532.20599 648.02438,536.6452 648.02438,536.6452C655.03365,532.7901 660.99154,525.54718 670.45406,525.54718C677.46333,525.54718 676.06148,534.89288 673.02413,539.21527C668.4681,545.75726 662.27658,551.71514 656.55233,556.9721C667.65035,557.78985 672.20638,553.23382 680.85115,548.09369C680.85115,548.09369 680.85115,548.09369 680.85115,548.09369M640.78146,553.35065C644.2861,553.23383 647.79073,553.93476 650.3608,554.40204C654.91683,549.61237 659.94014,544.47223 661.57564,539.44892C660.99153,535.477 656.78597,539.21528 655.15047,540.03303C648.84212,543.1872 644.8702,547.97687 640.78146,553.35065C640.78146,553.35065 640.78146,553.35065 640.78146,553.35065M722.90679,548.09369C722.90679,548.09369 722.67315,553.00018 722.67315,553.00018C714.37884,558.95806 707.13592,567.71966 694.05195,567.71966C684.93989,567.71966 681.20161,562.34588 680.73433,553.117C679.91658,536.87885 697.0893,522.27619 712.74335,522.27619C716.83209,522.27619 719.98627,523.91169 719.98627,527.64997C719.98627,541.20123 703.28083,544.93951 692.18281,549.2619C691.0146,554.63568 694.05195,558.02349 699.30891,557.90667C709.23872,557.78985 716.36481,552.18243 722.9068,548.09369C722.9068,548.09369 722.9068,548.09369 722.9068,548.09369M710.29011,530.45368C710.17329,528.23408 707.4864,529.16865 705.8509,529.86957C700.3603,532.43964 695.92109,537.81341 693.35103,543.53766C699.19209,541.31806 704.91633,537.6966 708.65461,533.72468C709.706,532.43965 710.29011,531.38826 710.29011,530.45369C710.29011,530.45369 710.29011,530.45369 710.29011,530.45369M775.24272,506.97262C784.00431,497.15964 796.0369,487.46347 812.97598,486.76254C817.06472,487.81393 820.56936,492.25314 818.93386,497.86056C813.6769,516.7856 804.21438,532.55647 795.45279,548.09369C795.45279,548.09369 809.12088,542.25263 809.12088,542.25263C809.12088,542.25263 810.52273,545.87409 810.52273,545.87409C810.52273,545.87409 790.07901,555.57025 790.07901,555.57025C790.07901,555.57025 783.77066,563.28045 783.77066,563.28045C783.77066,563.28045 769.75211,579.28496 769.75211,579.28496C764.14469,584.89238 757.6027,593.18669 750.71025,594.93901C747.78972,594.82219 745.57012,591.08391 746.62151,587.46245C751.29436,570.75701 769.75212,561.99542 783.06974,553.35065C783.06974,553.35065 794.75186,533.60786 794.75186,533.60786C800.82656,522.39302 807.01809,511.06136 809.58816,496.92599C794.05093,502.18295 784.58841,513.51461 777.69596,527.29951C776.17728,530.22004 775.24271,534.65925 774.19132,538.39753C776.87821,536.87885 779.21463,534.89289 782.25199,533.72468C784.12113,534.65925 782.95292,535.36018 781.2006,537.57978C776.99504,542.71991 771.8549,549.37873 764.61198,551.36469C758.42045,550.78058 759.70549,542.01899 761.10734,536.06111C763.79423,525.07991 768.70072,514.33236 775.24271,506.97262C775.24271,506.97262 775.24271,506.97262 775.24271,506.97262M857.25122,548.0937C857.25122,548.0937 857.01758,553.00019 857.01758,553.00019C848.72327,558.95807 841.48035,567.71967 828.39638,567.71967C819.28432,567.71967 815.54604,562.34589 815.07876,553.11701C814.26101,536.87886 831.43373,522.2762 847.08778,522.2762C851.17652,522.2762 854.3307,523.9117 854.3307,527.64998C854.3307,541.20124 837.62526,544.93952 826.52724,549.26191C825.35903,554.63569 828.39638,558.0235 833.65334,557.90668C843.58315,557.78986 850.70924,552.18244 857.25123,548.0937C857.25123,548.0937 857.25123,548.0937 857.25123,548.0937M844.63454,530.45369C844.51772,528.23409 841.83083,529.16866 840.19533,529.86958C834.70473,532.43965 830.26552,537.81342 827.69546,543.53767C833.53652,541.31807 839.26076,537.69661 842.99904,533.72469C844.05043,532.43966 844.63454,531.38827 844.63454,530.4537C844.63454,530.4537 844.63454,530.4537 844.63454,530.4537M915.77868,548.09371C915.77868,549.72921 915.42822,551.48153 915.66186,553.0002C909.23669,557.90669 903.16199,563.63093 895.91907,567.71968C891.1294,570.40657 885.75562,568.88789 885.75562,563.63094C885.75562,558.14034 887.8584,555.45345 890.19483,550.07968C884.23695,554.86935 878.27906,560.35995 871.85389,564.44869C862.50819,570.40657 856.19984,558.60763 857.25123,548.09372C862.97547,535.71067 878.16223,529.51914 891.7135,524.84629C898.8396,522.39304 905.84887,522.39304 907.71801,528.70139C907.60119,530.80417 905.14794,531.03781 903.62927,531.73874C907.25073,532.90695 907.71801,536.87887 905.26477,540.03305C902.1106,544.23861 896.50318,547.39279 896.50318,553.70114C896.50318,555.92074 898.37232,557.55624 900.82557,557.08896C907.25074,555.80393 908.53577,552.8834 915.77869,548.09372C915.77869,548.09372 915.77869,548.09372 915.77869,548.09372M866.48013,550.66379C866.01285,552.41611 864.72781,557.78989 867.76516,557.55624C879.44728,553.70114 888.90981,542.36948 896.62001,534.42563C886.22292,537.5798 876.29311,541.08444 868.69973,547.39279C867.64834,548.44418 866.83059,549.49557 866.48013,550.66378C866.48013,550.66378 866.48013,550.66378 866.48013,550.66378M939.96069,529.98642C937.97473,537.5798 927.46082,541.4349 925.35803,548.91146C926.2926,551.94881 928.86267,548.79464 930.03088,547.50961C936.68969,540.03305 947.55407,531.62192 956.19884,525.89768C959.23619,523.91172 961.33897,522.97715 962.62401,522.97715C965.54454,524.02854 965.3109,529.05185 966.47911,531.97239C963.20812,539.21531 952.34374,542.83677 952.34374,552.41611C952.34374,554.51889 953.51195,555.6871 955.73156,555.45346C961.68944,554.86935 964.7268,551.832 970.33422,548.09372C970.33422,549.72922 969.98376,551.48154 970.2174,553.11703C962.5072,558.37399 956.54931,567.48604 945.10083,567.48604C937.39063,567.48604 938.44202,556.15438 941.82984,550.89742C941.82984,550.89742 948.95594,540.03304 948.95594,540.03304C940.19435,546.34139 933.06825,556.73848 925.35805,563.63093C918.81606,569.47199 914.49367,560.94404 915.54507,551.48152C916.71328,540.73397 923.02163,532.43966 930.96547,528.11727C934.23646,527.29952 939.72706,527.06588 939.96071,529.98641C939.96071,529.98641 939.96071,529.98641 939.96071,529.98641M1015.7777,548.0937C1015.42724,550.78059 1016.24498,553.81794 1013.79174,554.63569C1013.79174,554.63569 1009.23571,558.02351 1009.23571,558.02351C1003.16101,562.22907 996.85266,567.83649 987.27332,567.95332C980.38087,568.07014 971.50245,563.63093 971.50245,557.43941C971.38563,554.16842 974.42298,551.59835 977.69398,551.71517C981.19862,551.83199 984.11915,554.16842 986.22193,555.80391C993.93213,552.29927 995.80127,544.12179 993.69849,533.60787C993.69849,533.60787 979.32948,546.22456 979.32948,546.22456C979.32948,546.22456 970.1006,553.23383 970.1006,553.23383C970.21742,551.48151 969.98378,549.61237 970.33424,548.0937C978.39491,542.019 986.10511,535.82747 993.11438,528.58455C994.74988,522.97713 995.10034,519.82296 1000.70776,519.82296C1003.86193,519.82296 1004.32922,520.99117 1004.56286,524.02852C1004.91332,528.93501 1007.13293,532.20601 1007.13293,537.22932C1007.13293,548.21052 998.13769,553.35065 991.5957,558.37397C1002.69372,559.77582 1008.76842,552.53291 1015.7777,548.0937C1015.7777,548.0937 1015.7777,548.0937 1015.7777,548.0937" fill="#000000" id="svg_12" style="pointer-events:inherit"/><rect stroke="null" opacity="0" fill="#000000" height="108.87739" width="514.22222" y="486.06156" x="501.55544" id="svg_13" style="pointer-events:inherit"/></g><g stroke="null" clip-id="227"  id="svg_17" style="pointer-events:inherit"><path stroke="null" stroke-width="0" id="svg_18" d="M1130.08782,507.48159C1129.67223,526.29416 1155.60532,541.36362 1187.79172,541.22508C1190.91699,541.1669 1194.02564,540.96741 1197.02623,540.66541C1200.387,534.99116 1205.28548,529.45821 1210.51088,526.15562C1210.02325,524.49047 1209.60765,522.83086 1209.20868,521.16572C1196.23105,520.93299 1178.62924,515.21995 1178.44915,507.55362C1178.14438,499.6407 1196.59123,492.55343 1209.7157,491.30665C1210.22273,489.28409 1210.83503,487.42223 1211.4141,485.50772C1211.01513,485.27499 1210.61893,485.07273 1210.21996,484.76519C1205.70106,481.69533 1202.48436,477.71948 1200.76934,473.79627C1196.9902,473.40007 1193.12517,473.09253 1189.11053,473.14517C1156.86872,473.30864 1130.48401,488.6884 1130.08781,507.48158L1130.08782,507.48159zM1232.79228,379.25687C1214.54214,385.15 1207.45487,408.37341 1216.87224,438.35716C1219.36581,446.48896 1222.98148,453.89762 1227.1014,460.17032C1228.11545,459.17566 1229.09071,458.2004 1230.0826,457.31657C1223.8099,446.14816 1215.75291,429.86517 1222.87065,425.83391C1230.02719,421.82204 1249.58506,431.27266 1256.68341,441.98945C1258.18232,441.52121 1259.81145,441.0696 1261.40179,440.67063C1262.10276,428.34687 1268.99054,417.73536 1277.08909,417.69934C1279.58266,417.69934 1281.91276,418.63858 1283.92146,420.35637C1283.63331,419.23704 1283.38119,418.13433 1283.03486,416.9956C1273.67013,387.06449 1251.02855,373.34988 1232.79227,379.25686L1232.79228,379.25687zM1391.63523,424.98334C1381.58062,411.21054 1355.03799,412.76486 1330.54562,428.0532C1330.99723,436.29582 1327.58659,448.61958 1323.24501,456.49925C1324.14824,457.31382 1324.90739,458.10899 1325.7552,458.92078C1337.23392,452.57604 1354.50879,452.63145 1358.62872,459.71595C1362.54639,466.70902 1352.21748,477.91344 1340.94933,484.51031C1341.53393,486.40819 1342.03819,488.27005 1342.50919,490.23997C1342.5646,490.20395 1342.5646,490.20395 1342.5646,490.20395C1345.97802,490.20395 1349.59369,490.74699 1353.12347,491.68624C1356.8278,489.73572 1360.58477,487.45549 1364.29188,484.85387C1390.07813,466.56772 1402.2966,439.70924 1391.63522,424.98334L1391.63523,424.98334zM1340.55591,524.99198C1351.547,531.61101 1363.56599,544.74934 1359.39065,551.73964C1355.12665,558.71608 1336.14784,556.87639 1324.72731,550.90845C1323.8601,551.93912 1322.84328,552.83958 1321.90681,553.74003C1328.17397,564.78099 1327.25412,577.11306 1319.93135,581.25238C1317.25769,582.74852 1314.09918,582.9674 1310.91572,582.15006C1312.17913,583.81798 1313.48686,585.40832 1314.89434,586.7216C1341.8581,612.06178 1369.90518,616.1817 1383.17096,598.3998C1394.84916,582.80393 1387.60397,551.17442 1363.98158,529.44992C1359.39065,525.33554 1354.58083,521.80575 1349.68236,518.80516C1347.13615,519.23461 1344.57055,519.55046 1342.11577,519.63635C1341.60874,521.45111 1341.15436,523.22154 1340.55591,524.99198zM1224.8572,635.09402C1245.09942,642.3974 1269.24545,626.88742 1279.99272,596.80115C1281.1176,593.82272 1282.1455,590.34558 1283.1263,586.81857C1280.81005,591.21002 1277.74297,593.76177 1274.63155,593.76177C1268.79938,593.8726 1264.82075,584.97888 1264.40516,571.84332C1260.19103,571.24209 1256.07388,570.25298 1252.15344,568.87875C1245.32107,579.4487 1235.52689,585.32521 1229.7252,582.10573C1223.99554,578.7976 1224.50256,567.62642 1230.70046,556.76555C1229.12951,555.41348 1227.60844,554.00046 1226.19819,552.54034C1221.08638,559.2231 1214.03513,568.46038 1211.01791,577.11582C1200.85801,606.04673 1204.09411,627.75184 1224.8572,635.09401L1224.8572,635.09402z" fill="#EF5027" style="pointer-events:inherit"/><path stroke="null" stroke-width="0" id="svg_19" d="M1317.62895,577.47877C1324.65527,573.49738 1325.45321,561.89952 1319.63211,551.37944C1320.49932,550.45959 1321.33605,549.6284 1322.23373,548.66699C1333.11122,554.3634 1351.18404,556.10059 1355.12664,549.48433C1359.15791,542.83482 1347.7346,530.36422 1337.23392,524.08874C1337.82961,522.42636 1338.32278,520.71134 1338.71621,518.99632C1350.90698,518.36185 1366.13436,513.5742 1366.27566,506.18216C1366.36155,498.3579 1351.70769,490.89106 1339.18445,491.0379C1339.12627,490.94924 1339.10133,491.0379 1339.12627,490.98249C1338.71622,489.13725 1338.22859,487.36682 1337.68277,485.61301C1348.29151,479.27104 1358.23253,468.67892 1354.42014,462.04604C1350.60775,455.23306 1334.12805,455.23306 1323.20623,461.23425C1322.44985,460.4751 1321.63528,459.66053 1320.82349,458.97619C1326.96875,447.89644 1331.08867,427.94514 1324.47241,424.22419C1317.91156,420.50046 1303.03882,434.27049 1296.10117,444.79057C1294.38338,444.3916 1292.77364,443.88734 1291.00321,443.52439C1290.76494,432.01243 1284.63907,422.07141 1276.94504,422.07141C1269.2981,422.07141 1262.69846,432.21191 1262.10278,443.9954C1260.49581,444.28355 1259.05232,444.68252 1257.57003,445.15075C1250.84848,434.97423 1232.24925,425.99462 1225.50831,429.75159C1218.65931,433.69142 1226.30348,449.10721 1232.28527,459.71595C1230.63952,461.23425 1229.01316,462.89663 1227.51425,464.55901C1218.85603,459.00944 1208.84575,458.80995 1204.88652,464.28749C1200.71395,470.03378 1204.54296,479.63124 1213.43391,485.81251C1213.83011,486.12005 1214.19029,486.26412 1214.58926,486.51625C1213.97418,488.32547 1213.43391,490.20396 1212.94351,492.01041C1200.45628,493.20178 1182.95976,499.96212 1183.25068,507.47883C1183.46679,514.76004 1200.11273,520.14892 1212.47251,520.31238C1212.83269,522.0274 1213.21227,523.58172 1213.68328,525.19146C1203.1632,531.68304 1193.91207,547.94387 1197.70783,554.54074C1201.4648,561.22904 1217.11609,555.61297 1227.92431,549.53421C1229.51465,551.22984 1231.10499,552.75368 1232.83941,554.2138C1226.94905,564.51777 1226.55008,575.14313 1232.04424,578.28503C1237.46636,581.34103 1246.86157,575.77761 1253.2451,565.70914C1256.98545,567.01134 1260.88927,567.96443 1264.92053,568.52687C1265.33058,581.05289 1269.09587,589.42019 1274.65929,589.42019C1280.19501,589.42019 1285.79445,580.64284 1286.53421,568.01985C1289.24666,567.53499 1291.8649,566.80908 1294.2892,566.06933C1300.4206,576.28187 1310.77722,581.39922 1317.62898,577.47878L1317.62895,577.47877zM1302.17438,555.41348C1302.73128,556.40259 1302.17438,558.06774 1301.12431,558.61079C1300.11303,559.2231 1298.5975,558.51936 1298.01843,557.61613C1297.5114,556.54944 1298.05722,555.15581 1299.10175,554.5435C1300.11026,553.95336 1301.63133,554.4493 1302.17438,555.41348zM1310.23691,553.35213C1309.33368,554.03925 1307.77659,553.58763 1307.00081,552.78969C1306.2943,551.88646 1306.60184,550.37093 1307.52169,549.68381C1308.40552,548.90526 1310.08729,549.06873 1310.72177,549.98858C1311.50309,550.78375 1311.11797,552.58743 1310.23691,553.35212L1310.23691,553.35213zM1315.00239,546.50036C1314.13518,545.79108 1314.20722,544.2423 1315.00239,543.39171C1315.70613,542.53836 1317.31309,542.4303 1318.1803,543.13958C1319.01149,543.8267 1319.01149,545.64977 1318.32437,546.50035C1317.51535,547.36756 1315.90838,547.2595 1315.00239,546.50035L1315.00239,546.50036zM1321.22245,535.99967C1321.8403,534.99116 1323.35583,534.68085 1324.40036,535.18788C1325.34237,535.80296 1325.66377,537.50136 1325.05146,538.51264C1324.4724,539.51838 1322.73521,539.60981 1321.7461,539.05291C1320.82348,538.51264 1320.60737,536.95831 1321.22245,535.99968L1321.22245,535.99967zM1327.22363,530.56092C1326.06551,530.21736 1325.66377,528.71568 1326.06551,527.65176C1326.46725,526.54905 1327.98001,526.00601 1329.06333,526.38558C1330.18266,526.74853 1330.74233,528.34996 1330.27687,529.45267C1329.93054,530.56092 1328.27093,530.95989 1327.22364,530.56092L1327.22363,530.56092zM1307.15596,457.31379C1307.77658,456.29974 1309.58026,455.95618 1310.56938,456.55464C1311.53356,457.11431 1311.69148,458.70465 1311.08472,459.66329C1310.48349,460.67734 1308.85436,460.94886 1307.95668,460.3698C1306.90938,459.82399 1306.56582,458.26966 1307.15597,457.3138L1307.15596,457.31379zM1315.09658,463.13211C1315.90837,462.22888 1317.71482,462.22888 1318.58203,462.98804C1319.46863,463.69178 1319.27469,465.35416 1318.51553,466.1521C1317.72036,467.12736 1316.16327,467.01931 1315.3016,466.29617C1314.39283,465.60628 1314.39283,464.00209 1315.09657,463.13211L1315.09658,463.13211zM1321.94003,470.32466C1322.80724,469.62092 1324.5084,469.87305 1325.26756,470.74025C1325.95468,471.64625 1325.55571,473.14516 1324.64971,473.94033C1323.75203,474.69948 1322.19216,474.35592 1321.43578,473.48872C1320.75143,472.60212 1320.97308,471.08381 1321.94003,470.32466zM1327.22362,478.58391C1328.27369,477.96883 1329.88065,478.58391 1330.47634,479.52315C1331.09419,480.48179 1330.3295,482.00009 1329.34038,482.59578C1328.27369,483.10003 1326.83019,482.59578 1326.27052,481.5845C1325.70808,480.62586 1326.20402,479.12695 1327.22362,478.58391zM1333.69304,501.69927C1332.60418,501.97079 1331.41558,500.88748 1331.20224,499.74598C1330.99998,498.62665 1331.99187,497.43528 1333.10843,497.16098C1334.30811,496.98089 1335.67957,498.11962 1335.86244,499.22233C1336.00374,500.45249 1334.8096,501.49979 1333.69304,501.69927zM1332.38807,491.95774C1331.19947,492.35948 1329.93052,491.54215 1329.57034,490.44221C1329.1686,489.37552 1329.87234,488.0373 1331.08864,487.5663C1332.09715,487.22551 1333.68749,488.0761 1334.01997,489.08738C1334.39123,490.24273 1333.45753,491.50614 1332.38807,491.95775L1332.38807,491.95774zM1329.4235,518.64721C1329.63961,517.53065 1330.99168,516.69946 1332.13595,516.8934C1333.29407,517.09289 1334.1973,518.53915 1333.97842,519.74992C1333.69027,520.81661 1332.18859,521.52035 1331.04709,521.34026C1329.88066,521.16571 1329.17692,519.80533 1329.4235,518.64721zM1333.29407,511.6015C1332.09716,511.6015 1331.08865,510.38796 1331.14683,509.30742C1331.20501,508.09388 1332.38807,507.0826 1333.51295,507.0826C1334.67107,507.02719 1335.86798,508.38203 1335.8292,509.54015C1335.75716,510.71767 1334.39124,511.56825 1333.29407,511.6015zM1298.21236,452.88355C1298.70553,451.78361 1300.36237,451.11312 1301.47062,451.51209C1302.53731,451.98033 1302.93074,453.53465 1302.53731,454.58195C1302.13834,455.62925 1300.62558,456.13627 1299.51732,455.81211C1298.41461,455.39652 1297.90481,453.98904 1298.21235,452.88355L1298.21236,452.88355zM1328.17395,506.77506C1327.57826,535.38735 1303.83397,558.51933 1274.78946,558.71605C1245.87517,558.77423 1222.83185,535.89438 1223.48295,507.55638C1224.09803,479.18237 1247.91436,455.95895 1276.83142,455.81765C1305.75679,455.70405 1328.68929,478.47586 1328.17395,506.77506zM1258.50925,560.21219C1258.68934,559.11502 1260.13561,558.31708 1261.29373,558.56644C1262.41029,558.76593 1263.20823,560.02933 1263.00875,561.19023C1262.75939,562.34558 1261.22169,563.22941 1260.08019,563.04932C1258.88882,562.84429 1258.29313,561.37586 1258.50924,560.2122L1258.50925,560.21219zM1268.34221,562.13224C1268.34221,560.99905 1269.64718,560.03487 1270.76097,560.03487C1271.95788,560.03487 1273.07722,561.13758 1273.00795,562.35112C1272.96916,563.41781 1271.56445,564.55377 1270.47837,564.55377C1269.24544,564.6646 1268.34221,563.30976 1268.34221,562.13224zM1280.92364,564.3432C1279.76552,564.60918 1278.61294,563.41781 1278.39128,562.28185C1278.30539,561.23178 1279.29451,560.03487 1280.52466,559.84093C1281.55533,559.58603 1282.87969,560.63333 1283.03485,561.68063C1283.23434,562.78334 1282.10669,564.19359 1280.92363,564.3432L1280.92364,564.3432zM1226.41428,540.62938C1225.70777,539.6652 1226.15938,538.09702 1227.1014,537.3545C1228.02402,536.6286 1229.5257,536.99155 1230.3375,537.8643C1231.04124,538.65947 1230.7337,540.26644 1229.83047,540.9674C1228.9411,541.67668 1227.17067,541.44118 1226.41428,540.62938zM1233.24665,545.10949C1234.00303,544.18687 1235.55735,544.24228 1236.46058,545.00144C1237.32779,545.64977 1237.36658,547.20409 1236.60465,548.12671C1235.80948,549.01054 1234.00303,549.06872 1233.13582,548.30126C1232.28524,547.56704 1232.4487,545.88527 1233.24665,545.1095L1233.24665,545.10949zM1240.68856,551.59553C1241.30364,550.56763 1242.78593,550.33212 1243.79721,550.96383C1244.84451,551.48471 1245.09941,552.98362 1244.52034,553.94503C1243.9579,554.95354 1242.13483,555.2971 1241.19558,554.75682C1240.1843,554.14728 1240.07348,552.54032 1240.68855,551.59553L1240.68856,551.59553zM1253.45008,558.43067C1253.05111,559.43918 1251.35271,560.1263 1250.23061,559.73287C1249.13067,559.39208 1248.75109,557.77958 1249.23872,556.66301C1249.64046,555.56307 1251.1366,555.16133 1252.15065,555.50766C1253.25059,555.8623 1253.86567,557.36121 1253.45008,558.43067zM1281.31707,446.70504C1282.53061,446.70504 1283.41167,448.00724 1283.41167,449.16259C1283.3424,450.31794 1282.1067,451.22394 1280.92364,451.33199C1279.76552,451.33199 1278.71268,450.11845 1278.75424,449.00189C1278.80411,447.86039 1280.10631,446.70504 1281.31707,446.70504zM1273.2767,448.94648C1273.47341,450.12123 1272.42612,451.22394 1271.25414,451.42065C1270.15143,451.69494 1268.852,450.77232 1268.63312,449.61697C1268.56662,448.51426 1269.64717,447.15942 1270.76928,446.94331C1271.94957,446.70504 1273.10769,447.86039 1273.2767,448.94647L1273.2767,448.94648zM1263.31629,450.57284C1263.62383,451.58412 1262.81204,452.9251 1261.68993,453.3407C1260.60384,453.75352 1259.23238,452.98052 1258.88882,451.93045C1258.50647,450.86376 1259.37368,449.30943 1260.49579,448.91046C1261.61789,448.45885 1262.84528,449.45073 1263.31629,450.57284zM1253.66342,453.75352C1254.2785,454.74818 1253.59415,456.13903 1252.5995,456.75411C1251.60761,457.31655 1250.08931,456.86494 1249.5435,455.85366C1248.92842,454.91165 1249.58229,453.28529 1250.62959,452.6896C1251.64087,452.09114 1253.08991,452.79488 1253.66343,453.75352L1253.66342,453.75352zM1244.19895,461.63319C1243.30958,462.44776 1241.81067,462.17623 1240.97948,461.27024C1240.29236,460.47507 1240.58328,458.70464 1241.50313,457.96488C1242.38696,457.2085 1244.01609,457.65734 1244.70321,458.50792C1245.46236,459.48318 1245.09941,460.94607 1244.19896,461.63319L1244.19895,461.63319zM1236.76812,467.90312C1236.02559,468.82574 1234.45464,468.87838 1233.55142,468.17464C1232.64819,467.41549 1232.68421,465.66168 1233.45999,464.73906C1234.25516,463.89125 1235.8455,463.9993 1236.71271,464.70304C1237.58269,465.49821 1237.58269,467.07193 1236.76812,467.90312zM1226.66641,472.80159C1227.31751,471.78754 1228.9411,471.64624 1229.91913,472.20313C1230.93318,472.80159 1231.11327,474.31989 1230.53144,475.36719C1229.91913,476.32306 1228.36481,476.61397 1227.31751,476.10695C1226.41428,475.51126 1226.10397,473.76023 1226.66641,472.80159zM1293.22801,451.05769C1292.99251,452.23521 1291.61827,452.92232 1290.46569,452.73946C1289.36021,452.52058 1288.5124,451.22116 1288.70911,450.11844C1288.94184,448.99911 1290.49894,448.05709 1291.66814,448.25935C1292.77362,448.45884 1293.42749,449.90233 1293.228,451.05769L1293.22801,451.05769zM1224.49701,480.68126C1225.59972,481.09408 1226.10398,482.55975 1225.65236,483.66246C1225.20075,484.70976 1223.70184,485.30544 1222.67116,484.96466C1221.53243,484.56569 1220.98939,482.90331 1221.42438,481.85324C1221.87599,480.77269 1223.44694,480.33771 1224.49701,480.68126zM1215.57004,512.16669C1215.40657,511.04736 1216.54253,509.88923 1217.72005,509.7036C1218.85878,509.50966 1220.05292,510.49877 1220.1582,511.67352C1220.41033,512.77623 1219.36303,513.97314 1218.20768,514.16709C1217.12159,514.42199 1215.7529,513.31928 1215.57004,512.1667L1215.57004,512.16669zM1218.26309,504.21221C1217.06895,504.26762 1215.8942,502.91278 1215.8942,501.75466C1215.8942,500.59931 1217.30445,499.69608 1218.46257,499.64067C1219.68996,499.64067 1220.57656,500.88745 1220.57656,502.00679C1220.52115,503.16214 1219.36579,504.21221 1218.26308,504.21221L1218.26309,504.21221zM1219.61793,494.47068C1218.42656,494.16314 1217.55658,492.76951 1217.81148,491.61416C1218.06361,490.43941 1219.5265,489.79109 1220.668,489.9878C1221.78733,490.13187 1222.47168,491.5061 1222.29159,492.58942C1222.07548,493.72815 1220.668,494.56211 1219.61793,494.47068zM1217.72005,522.21576C1217.26567,521.11305 1218.26309,519.75544 1219.3658,519.36201C1220.46851,518.96304 1221.78733,519.76098 1222.1863,520.85815C1222.5825,521.92761 1221.78733,523.28245 1220.668,523.68142C1219.61793,524.12749 1218.06361,523.2215 1217.72005,522.21576zM1221.24429,531.77166C1220.668,530.78255 1221.39113,529.31411 1222.43843,528.71566C1223.48573,528.10058 1224.89598,528.71566 1225.43902,529.65767C1225.99869,530.72436 1225.51106,532.18725 1224.49978,532.78571C1223.48573,533.32321 1221.78456,532.78571 1221.24429,531.77166zM1291.27749,562.3511C1290.17755,562.78332 1288.81994,561.79143 1288.44037,560.72197C1288.0414,559.73286 1288.91138,558.43066 1290.06396,558.00952C1291.18329,557.56068 1292.48826,558.26442 1292.82905,559.33388C1293.28343,560.48923 1292.34142,562.04356 1291.2775,562.3511L1291.27749,562.3511z" fill="#F7F297" style="pointer-events:inherit"/><path stroke="null" stroke-width="0" id="svg_20" d="M1224.89322,507.55363C1224.27814,535.14633 1246.67037,557.36123 1274.88091,557.32244C1303.03605,557.1562 1326.15141,534.6393 1326.76926,506.77231C1327.22364,479.26827 1304.9561,457.05614 1276.80096,457.20298C1248.75111,457.34705 1225.5083,479.94153 1224.89322,507.55363zM1301.37644,507.08539C1301.12154,520.96347 1289.44334,532.22331 1275.36854,532.37015C1261.21617,532.42556 1250.04499,521.25161 1250.22508,507.37353C1250.51323,493.51207 1262.20805,482.19959 1276.39644,482.14695C1290.4657,482.03612 1301.63133,493.20453 1301.37643,507.08538L1301.37644,507.08539z" fill="#BBD647" style="pointer-events:inherit"/><path stroke="null" stroke-width="0" id="svg_21" d="M1252.45821,507.37354C1252.15067,520.06302 1262.4491,530.3282 1275.37409,530.27279C1288.29076,530.12595 1299.02695,519.80812 1299.21258,507.08539C1299.51458,494.4153 1289.2494,484.16951 1276.2967,484.20553C1263.3163,484.31358 1252.65215,494.6702 1252.45821,507.37353L1252.45821,507.37354z" fill="#D02B5C" style="pointer-events:inherit"/><path stroke="null" stroke-width="0" id="svg_22" d="M1250.23062,507.37354C1250.05053,521.25439 1261.22171,532.42557 1275.37685,532.37016C1289.44888,532.22055 1301.12431,520.96348 1301.37921,507.0854C1301.63688,493.20455 1290.46847,482.03614 1276.40199,482.14697C1262.2136,482.19961 1250.51877,493.51209 1250.23063,507.37355L1250.23062,507.37354zM1299.2098,507.08539C1299.02971,519.80535 1288.29352,530.12594 1275.37131,530.27279C1262.44632,530.33097 1252.1479,520.06025 1252.45543,507.37354C1252.65214,494.6702 1263.31353,484.31359 1276.29115,484.20554C1289.24938,484.16952 1299.51734,494.41531 1299.2098,507.0854L1299.2098,507.08539zM1223.48573,507.55363C1222.83463,535.89163 1245.87796,558.77148 1274.79224,558.7133C1303.83398,558.51936 1327.58658,535.3846 1328.18227,506.77231C1328.6893,478.47587 1305.7568,455.70407 1276.8342,455.8149C1247.91714,455.9562 1224.09804,479.17962 1223.48573,507.55363zM1326.76648,506.77508C1326.14863,534.64484 1303.03881,557.16174 1274.87813,557.32521C1246.66481,557.364 1224.27536,535.14909 1224.89044,507.5564C1225.50552,479.94431 1248.74833,457.34983 1276.79541,457.20852C1304.95332,457.05891 1327.22363,479.27381 1326.76648,506.77508zM1187.79171,541.22508C1155.60531,541.37192 1129.66945,526.29416 1130.08781,507.48159C1130.48401,488.68841 1156.87148,473.30865 1189.1133,473.14241C1193.12517,473.08977 1196.99297,473.39731 1200.77211,473.79351C1200.20967,472.52733 1199.86611,471.33596 1199.59459,470.06978C1196.63279,469.87307 1193.66544,469.72622 1190.61221,469.72622C1155.31716,469.95895 1126.25603,486.821 1125.85983,507.55085C1125.46086,528.15602 1153.80163,544.74101 1189.15209,544.60248C1191.15803,544.60248 1193.12794,544.49443 1195.07847,544.32819C1195.65753,543.13405 1196.34465,541.87064 1197.03176,540.66265C1194.02563,540.96742 1190.91698,541.16413 1187.79171,541.22509L1187.79171,541.22508zM1227.09863,460.17032C1222.9787,453.89762 1219.36303,446.48895 1216.86947,438.35716C1207.45487,408.37341 1214.53937,385.14999 1232.79228,379.25687C1251.03133,373.34989 1273.67569,387.0645 1283.0321,416.99284C1283.37843,418.13157 1283.63333,419.23428 1283.9187,420.35361C1286.2294,422.3069 1288.14668,425.26871 1289.55416,428.79295C1288.82826,424.90853 1287.9278,421.00471 1286.68379,417.0815C1276.47125,384.09993 1251.55221,369.01108 1231.43744,375.46111C1211.33929,382.00257 1203.53443,407.55608 1213.83286,440.61246C1216.14634,448.1652 1219.27438,455.14164 1222.94269,461.2675C1223.64643,461.63045 1224.35017,461.99063 1225.00404,462.44502C1225.70778,461.68587 1226.41429,460.94611 1227.09864,460.17033L1227.09863,460.17032zM1391.63522,424.98333C1402.30214,439.70922 1390.07813,466.56771 1364.29188,484.85663C1360.58478,487.45548 1356.8278,489.73848 1353.12347,491.689C1355.03797,492.19603 1356.8278,492.86375 1358.63148,493.6035C1360.85907,492.26529 1363.0257,490.83841 1365.17294,489.28132C1394.25347,468.77035 1408.02626,438.55387 1396.04329,421.96334C1385.09099,406.8357 1356.68096,408.08526 1329.82525,423.76979C1330.22699,424.98333 1330.47358,426.42682 1330.55115,428.05318C1355.03797,412.76485 1381.5806,411.21052 1391.63521,424.98332L1391.63522,424.98333zM1385.79196,600.75205C1398.45651,583.96204 1390.61563,549.82234 1365.02886,526.441C1361.55726,523.22153 1357.94159,520.42042 1354.25665,517.85205C1352.7522,518.25379 1351.18402,518.53917 1349.68234,518.81346C1354.58358,521.81405 1359.39063,525.33552 1363.98156,529.45822C1387.60117,551.18272 1394.84914,582.81223 1383.17094,598.4081C1369.91071,616.19 1341.8664,612.07284 1314.89432,586.7299C1313.48684,585.41108 1312.18187,583.82074 1310.9157,582.15836C1309.01782,581.65411 1307.0479,580.75088 1305.19989,579.59276C1307.33605,582.86764 1309.66337,585.88486 1312.14309,588.23435C1341.15435,615.59431 1371.42347,620.01901 1385.79196,600.75205zM1283.12906,586.81856C1282.14826,590.3428 1281.11758,593.81717 1279.99548,596.80114C1269.24267,626.8874 1245.0994,642.39739 1224.85996,635.09401C1204.09409,627.76015 1200.86077,606.0495 1211.0179,577.11582C1214.03512,568.46037 1221.0836,559.2231 1226.19818,552.54034C1225.99869,552.28267 1225.80198,552.08596 1225.54985,551.83106C1224.04817,552.68718 1222.47722,553.49898 1220.83424,554.31077C1216.04382,560.67491 1210.90985,568.28305 1208.52433,575.47561C1197.5,606.74216 1200.97159,630.27035 1223.39984,638.21928C1245.32106,646.06293 1271.50628,629.31448 1283.18171,596.7485C1285.8803,589.15698 1288.77007,578.85301 1289.85339,570.70458C1288.94739,570.87913 1288.04694,571.10078 1287.15757,571.29472C1286.73643,577.52864 1285.23752,582.91751 1283.12907,586.81856L1283.12906,586.81856zM1319.93964,581.25514C1327.25964,577.11582 1328.18226,564.78929 1321.90956,553.74556C1322.84603,552.84233 1323.86285,551.94188 1324.73283,550.91121C1336.15336,556.8736 1355.13217,558.7133 1359.39617,551.7424C1363.57428,544.74933 1351.55252,531.60824 1340.56143,524.99752C1341.15989,523.22155 1341.61427,521.45666 1342.11852,519.64466C1344.58161,519.55877 1347.14167,519.24569 1349.68788,518.81347C1351.18956,518.53918 1352.76051,518.2538 1354.25942,517.85206C1363.28059,515.6882 1370.92476,511.60152 1370.99679,506.23481C1371.10484,501.35573 1365.79078,496.61796 1358.63147,493.60074C1356.82779,492.85821 1355.03796,492.19049 1353.12346,491.68624C1349.60199,490.747 1345.98355,490.20395 1342.56459,490.20395C1342.56459,490.20395 1342.56459,490.20395 1342.50918,490.23997C1342.03817,488.27282 1341.53392,486.40819 1340.94932,484.51031C1352.21193,477.91344 1362.54638,466.70902 1358.62871,459.71595C1354.50878,452.63145 1337.22837,452.57604 1325.75519,458.92078C1324.90461,458.10899 1324.14822,457.31381 1323.245,456.49925C1327.57826,448.61958 1330.99722,436.29582 1330.54561,428.0532C1330.47634,426.42961 1330.22145,424.98334 1329.82248,423.76981C1329.28498,422.01877 1328.37898,420.69718 1327.07956,419.95742C1320.13636,416.03698 1304.54049,430.54954 1297.18447,441.66253C1295.50824,441.15273 1293.67685,440.66787 1291.81776,440.27167C1291.7291,436.13235 1290.85635,432.17589 1289.55693,428.79295C1288.14945,425.27148 1286.23217,422.30691 1283.92147,420.35361C1281.91276,418.63582 1279.58821,417.69658 1277.0891,417.69658C1268.99055,417.7326 1262.10277,428.34134 1261.4018,440.66787C1259.81146,441.06684 1258.18233,441.51845 1256.68342,441.98669C1249.5823,431.2699 1230.0272,421.81928 1222.87066,425.83115C1215.75291,429.86242 1223.8099,446.1454 1230.08261,457.31381C1229.09072,458.19764 1228.11546,459.1729 1227.10141,460.16756C1226.41429,460.94611 1225.71055,461.68586 1225.00681,462.44502C1224.35571,461.99064 1223.65197,461.63045 1222.94546,461.2675C1214.34266,456.69596 1205.08875,456.85943 1201.14892,462.13748C1199.55858,464.34013 1199.10697,467.16063 1199.59183,470.06979C1199.86335,471.33597 1200.20691,472.52734 1200.76935,473.79352C1202.48437,477.71673 1205.70107,481.69258 1210.21997,484.76244C1210.61894,485.06998 1211.01514,485.27224 1211.41411,485.50497C1210.83505,487.41947 1210.21997,489.28134 1209.71571,491.3039C1196.59401,492.55345 1178.14439,499.63795 1178.44916,507.55087C1178.62925,515.21443 1196.23106,520.92747 1209.20869,521.16574C1209.60766,522.82812 1210.02048,524.48772 1210.51089,526.1501C1205.28825,529.45546 1200.38978,534.98841 1197.02624,540.66266C1196.33912,541.8762 1195.65478,543.14237 1195.07295,544.3282C1192.81766,549.42893 1192.01972,554.21658 1193.73751,557.1008C1197.1343,563.19341 1209.96509,559.5251 1220.82872,554.30246C1222.4717,553.49067 1224.04542,552.67887 1225.54433,551.82275C1225.79923,552.07765 1225.99594,552.27436 1226.19266,552.53203C1227.60291,553.99215 1229.12122,555.40517 1230.69493,556.75724C1224.49703,567.61811 1223.99001,578.78651 1229.71967,582.09742C1235.52137,585.31135 1245.31554,579.44039 1252.14791,568.87044C1256.07112,570.24467 1260.18828,571.23656 1264.39963,571.83224C1264.81522,584.97056 1268.78831,593.86428 1274.62602,593.75346C1277.73744,593.75346 1280.80729,591.20171 1283.12354,586.81026C1285.23476,582.90921 1286.73367,577.52034 1287.14926,571.28642C1288.03309,571.08971 1288.93909,570.87083 1289.84508,570.69073C1291.72634,570.23635 1293.56604,569.76534 1295.38634,569.22784C1298.04891,573.70518 1301.51774,577.26544 1305.20268,579.58168C1307.04792,580.73426 1309.02061,581.64026 1310.91849,582.14728C1314.09917,582.97016 1317.26323,582.75128 1319.93966,581.25514L1319.93964,581.25514zM1294.2947,566.07486C1291.8704,566.82016 1289.25215,567.54052 1286.53971,568.02538C1285.79718,580.64837 1280.20051,589.42572 1274.66479,589.42572C1269.10137,589.42572 1265.33885,581.05565 1264.92603,568.5324C1260.89476,567.9755 1256.99095,567.01687 1253.2506,565.71467C1246.86707,575.78314 1237.47187,581.34656 1232.04974,578.29056C1226.55558,575.1459 1226.95455,564.52053 1232.84491,554.21933C1231.1105,552.75921 1229.52015,551.23536 1227.92981,549.53974C1217.12159,555.61296 1201.4703,561.23457 1197.71333,554.54627C1193.91757,547.9494 1203.1687,531.68858 1213.68878,525.19699C1213.21777,523.58725 1212.8382,522.03293 1212.47801,520.31791C1200.11823,520.15444 1183.47229,514.76557 1183.25618,507.48436C1182.96526,499.96764 1200.45902,493.20731 1212.94901,492.01594C1213.43664,490.20672 1213.97968,488.32823 1214.59476,486.52178C1214.19579,486.26965 1213.83561,486.12558 1213.43941,485.81804C1204.54846,479.63677 1200.71668,470.03931 1204.89202,464.29302C1208.85125,458.81549 1218.86153,459.01497 1227.51975,464.56454C1229.01866,462.90216 1230.64502,461.23978 1232.29077,459.72148C1226.30898,449.11274 1218.66482,433.69696 1225.51381,429.75712C1232.25475,426.00015 1250.85399,434.97976 1257.57553,445.15628C1259.05782,444.68804 1260.50409,444.28907 1262.10828,444.00093C1262.70397,432.21744 1269.3036,422.07694 1276.95054,422.07694C1284.64458,422.07694 1290.77044,432.01796 1291.00871,443.52992C1292.77914,443.89287 1294.38888,444.39713 1296.10667,444.7961C1303.04433,434.27879 1317.91706,420.50599 1324.47791,424.22972C1331.09417,427.95068 1326.97148,447.90198 1320.82899,458.98172C1321.64078,459.66884 1322.45535,460.48063 1323.21173,461.23978C1334.12524,455.2386 1350.61325,455.2386 1354.42564,462.05157C1358.23803,468.68723 1348.29701,479.27657 1337.68827,485.61854C1338.23408,487.37235 1338.72171,489.14278 1339.13177,490.98802C1339.09852,491.04343 1339.13177,490.952 1339.18995,491.04343C1351.71597,490.89936 1366.37536,498.36343 1366.28116,506.18769C1366.13432,513.57696 1350.91248,518.36738 1338.72171,519.00185C1338.31997,520.71687 1337.83511,522.43189 1337.23942,524.09704C1347.74011,530.36974 1359.16341,542.84035 1355.13214,549.48986C1351.18953,556.10612 1333.11672,554.36894 1322.23923,548.67252C1321.34155,549.6367 1320.50759,550.46235 1319.63761,551.38497C1325.46424,561.90505 1324.66353,573.50567 1317.63445,577.4843C1310.77714,581.3992 1300.42053,576.28185 1294.29467,566.07485L1294.2947,566.07486zM1218.46258,499.64071C1217.30446,499.69612 1215.89421,500.59658 1215.89421,501.7547S1217.06896,504.26766 1218.2631,504.21225C1219.36581,504.21225 1220.52116,503.16495 1220.5738,502.00683C1220.5738,500.88473 1219.68997,499.64071 1218.46258,499.64071zM1222.29159,492.58946C1222.47168,491.50614 1221.78734,490.13191 1220.668,489.98784C1219.5265,489.79113 1218.06361,490.43945 1217.81148,491.6142C1217.55658,492.76955 1218.42656,494.16041 1219.61793,494.47072C1220.668,494.56215 1222.07548,493.72819 1222.29159,492.58946zM1222.67117,484.96469C1223.70184,485.30548 1225.20353,484.70979 1225.65237,483.66249C1226.10398,482.55978 1225.59973,481.09689 1224.49702,480.68129C1223.44695,480.33496 1221.876,480.76995 1221.42439,481.85327C1220.9894,482.90334 1221.53522,484.56849 1222.67117,484.96469zM1230.53145,475.36723C1231.11051,474.31993 1230.93319,472.80163 1229.91914,472.20317C1228.94111,471.6435 1227.31752,471.78758 1226.66642,472.80163C1226.10398,473.76027 1226.41429,475.51131 1227.31752,476.10699C1228.36482,476.61402 1229.91914,476.32587 1230.53145,475.36723zM1233.46001,464.7391C1232.68146,465.66172 1232.64822,467.41553 1233.55144,468.17468C1234.45467,468.87842 1236.02838,468.82578 1236.76814,467.90316C1237.57993,467.0692 1237.57993,465.49825 1236.71273,464.70308C1235.84552,464.00211 1234.25518,463.89129 1233.46001,464.7391zM1241.50315,457.96491C1240.5833,458.70744 1240.29238,460.4751 1240.9795,461.27027C1241.81069,462.17627 1243.3096,462.44779 1244.19897,461.63322C1245.1022,460.9461 1245.46238,459.48321 1244.70322,458.50795C1244.0161,457.65737 1242.38697,457.20575 1241.50314,457.96491L1241.50315,457.96491zM1250.63237,452.68686C1249.58507,453.28255 1248.9312,454.9089 1249.54628,455.85092C1250.08932,456.8622 1251.60763,457.31381 1252.60228,456.75137C1253.59694,456.13629 1254.28128,454.74821 1253.6662,453.75078C1253.08991,452.79491 1251.64087,452.09117 1250.63236,452.68686L1250.63237,452.68686zM1260.49858,448.91049C1259.37648,449.30946 1258.50927,450.86378 1258.89161,451.93048C1259.23517,452.97778 1260.60663,453.75355 1261.69272,453.34073C1262.81482,452.92514 1263.62662,451.58692 1263.31908,450.57287C1262.8453,449.45077 1261.61791,448.45888 1260.49858,448.91049zM1270.76099,446.94057C1269.6472,447.15945 1268.55834,448.51152 1268.62761,449.61423C1268.84649,450.76958 1270.14591,451.6922 1271.2514,451.41791C1272.42615,451.2212 1273.47344,450.11848 1273.27119,448.94374C1273.10772,447.86042 1271.9496,446.70507 1270.761,446.94058L1270.76099,446.94057zM1278.74594,449.00192C1278.70715,450.12125 1279.75722,451.33202 1280.91534,451.33202C1282.10671,451.22119 1283.3341,450.31797 1283.40614,449.16262C1283.40614,448.00727 1282.52231,446.70507 1281.31154,446.70507S1278.80412,447.86042 1278.74594,449.00192zM1288.70912,450.12125C1288.51241,451.22396 1289.35745,452.52616 1290.4657,452.74227C1291.61828,452.92236 1292.99251,452.23524 1293.22802,451.0605C1293.42751,449.90515 1292.77364,448.46165 1291.66816,448.26216C1290.50173,448.0599 1288.94186,449.00192 1288.70913,450.12125L1288.70912,450.12125zM1299.51734,455.81489C1300.62005,456.13905 1302.13836,455.63757 1302.53733,454.58473C1302.9363,453.53743 1302.53733,451.98311 1301.47064,451.51487C1300.36793,451.1159 1298.70555,451.78362 1298.21238,452.88633C1297.90484,453.98904 1298.41464,455.39652 1299.51735,455.81489L1299.51734,455.81489zM1307.95668,460.3698C1308.85436,460.94609 1310.48349,460.67457 1311.08472,459.66329C1311.69703,458.70742 1311.53356,457.11708 1310.56938,456.55464C1309.58027,455.95618 1307.77104,456.30251 1307.15596,457.31379C1306.56582,458.26966 1306.90937,459.82398 1307.95667,460.36979L1307.95668,460.3698zM1318.51001,466.1521C1319.26639,465.35693 1319.46865,463.69455 1318.57928,462.98804C1317.71207,462.22889 1315.90562,462.22889 1315.08829,463.13211C1314.38455,463.99932 1314.38455,465.60628 1315.29055,466.2934C1316.16053,467.01653 1317.71485,467.12736 1318.51002,466.1521L1318.51001,466.1521zM1324.65527,473.94034C1325.5585,473.14517 1325.95747,471.64626 1325.27035,470.74026C1324.51397,469.87305 1322.81003,469.62093 1321.94837,470.32467C1320.97311,471.08382 1320.75146,472.60213 1321.43857,473.48873C1322.19772,474.35594 1323.75482,474.6995 1324.65527,473.94034zM1329.33486,482.59579C1330.3212,482.0001 1331.08867,480.4818 1330.47359,479.52316C1329.87236,478.58392 1328.27094,477.96607 1327.22087,478.58392C1326.20405,479.12696 1325.69979,480.62587 1326.25946,481.58451C1326.82467,482.59579 1328.27094,483.10004 1329.33486,482.59579zM1331.08867,487.5663C1329.87513,488.03731 1329.17694,489.37552 1329.57037,490.44221C1329.93055,491.54215 1331.1995,492.35949 1332.3881,491.95774C1333.45756,491.50613 1334.39958,490.24272 1334.02,489.08737C1333.69307,488.07332 1332.09718,487.22551 1331.08867,487.56629L1331.08867,487.5663zM1333.11123,497.16376C1331.99467,497.43528 1330.99724,498.62665 1331.20504,499.74876C1331.41838,500.88749 1332.61252,501.97358 1333.69584,501.70205C1334.80963,501.50534 1336.00654,500.45527 1335.86524,499.22788C1335.67407,498.1224 1334.30538,496.98367 1333.11123,497.16376zM1333.50743,507.08538C1332.3881,507.08538 1331.1995,508.09943 1331.14408,509.30742C1331.0859,510.39351 1332.09718,511.6015 1333.28855,511.6015C1334.38849,511.56548 1335.74887,510.72044 1335.81813,509.54569C1335.86523,508.38203 1334.66555,507.02996 1333.50743,507.08537L1333.50743,507.08538zM1331.04711,521.34581C1332.18861,521.52036 1333.68752,520.82493 1333.97844,519.75547C1334.19732,518.54193 1333.29409,517.09844 1332.13597,516.90172C1330.99724,516.70223 1329.64794,517.53619 1329.42352,518.65553C1329.17693,519.80534 1329.88067,521.16572 1331.04711,521.34581zM1330.2741,529.45821C1330.74234,528.35827 1330.18267,526.74853 1329.06056,526.38835C1327.97447,526.00877 1326.46171,526.55459 1326.06274,527.65453C1325.65823,528.72122 1326.06274,530.2229 1327.22086,530.56646C1328.27093,530.95989 1329.93054,530.56092 1330.27409,529.45821L1330.2741,529.45821zM1325.05146,538.51263C1325.66377,537.50135 1325.33961,535.80018 1324.40036,535.18787C1323.35029,534.68084 1321.83476,534.99116 1321.22245,535.99966C1320.60737,536.9583 1320.82348,538.51262 1321.7461,539.05566C1322.73521,539.61533 1324.4724,539.52667 1325.05146,538.51262L1325.05146,538.51263zM1318.18584,543.13958C1317.31863,542.4303 1315.70613,542.53835 1315.00516,543.39171C1314.20999,544.24229 1314.13795,545.79107 1315.00516,546.50036C1315.90839,547.25674 1317.51535,547.36757 1318.32714,546.50036C1319.0198,545.65255 1319.0198,543.8267 1318.18584,543.13959L1318.18584,543.13958zM1310.72176,549.98858C1310.08729,549.06873 1308.40551,548.90249 1307.52168,549.68381C1306.60183,550.37093 1306.29429,551.88646 1307.0008,552.78969C1307.77658,553.58763 1309.33367,554.03924 1310.2369,553.35213C1311.11796,552.58744 1311.50308,550.78376 1310.72176,549.98859L1310.72176,549.98858zM1298.01842,557.61612C1298.59748,558.51935 1300.11302,559.22309 1301.1243,558.61078C1302.17437,558.06774 1302.73127,556.40259 1302.17437,555.41347C1301.63687,554.44929 1300.11302,553.95335 1299.10174,554.54349C1298.05167,555.1558 1297.5114,556.54943 1298.01842,557.61612zM1290.06117,558.00955C1288.90859,558.42514 1288.04138,559.73011 1288.43758,560.722C1288.81993,561.79146 1290.16922,562.78335 1291.27193,562.35113C1292.33862,562.04359 1293.28064,560.48927 1292.82625,559.33391C1292.47992,558.26445 1291.18327,557.56071 1290.06116,558.00955L1290.06117,558.00955zM1280.51912,559.84094C1279.2945,560.03488 1278.29708,561.2318 1278.38851,562.28186C1278.60462,563.41782 1279.7572,564.60919 1280.91532,564.34321C1282.10669,564.1936 1283.22602,562.78335 1283.02654,561.68064C1282.87138,560.63334 1281.54979,559.58604 1280.51912,559.84094zM1273.0024,562.35113C1273.0689,561.13759 1271.94956,560.03488 1270.75819,560.03488C1269.63886,560.03488 1268.33389,560.99906 1268.33389,562.13225C1268.33389,563.30977 1269.23989,564.66461 1270.47005,564.55378C1271.56168,564.55378 1272.96916,563.41782 1273.00241,562.35113L1273.0024,562.35113zM1263.00874,561.19578C1263.20823,560.03489 1262.41305,558.77148 1261.29372,558.57476C1260.1356,558.32263 1258.68933,559.11503 1258.50924,560.22051C1258.29313,561.37863 1258.89159,562.8443 1260.08019,563.05486C1261.22169,563.23495 1262.75662,562.35112 1263.00875,561.19577L1263.00874,561.19578zM1252.14787,555.50214C1251.13382,555.15581 1249.63768,555.55755 1249.23594,556.65749C1248.75108,557.77682 1249.12789,559.38379 1250.22783,559.73012C1251.34993,560.12632 1253.04833,559.4392 1253.4473,558.42515C1253.86567,557.36123 1253.25059,555.86232 1252.14787,555.50214zM1244.52033,553.95336C1245.09939,552.98918 1244.84449,551.4875 1243.7972,550.96662C1242.78592,550.33215 1241.30363,550.56765 1240.68855,551.60109C1240.07347,552.54587 1240.18152,554.15284 1241.19558,554.76792C1242.13759,555.30265 1243.96067,554.95909 1244.52034,553.95335L1244.52033,553.95336zM1236.60464,548.12673C1237.36379,547.20411 1237.32777,545.64979 1236.46057,545.00146C1235.55734,544.24231 1234.00302,544.18689 1233.24664,545.10951C1232.45147,545.88252 1232.288,547.56706 1233.13581,548.30127C1234.00302,549.06873 1235.80947,549.01055 1236.60464,548.12672L1236.60464,548.12673zM1230.33471,537.86432C1229.52292,536.99434 1228.02123,536.63693 1227.09861,537.35452C1226.15937,538.09705 1225.70775,539.66522 1226.41149,540.6294C1227.16787,541.44119 1228.94107,541.6767 1229.82491,540.96742C1230.73091,540.26645 1231.03845,538.65949 1230.33471,537.86432zM1224.49699,532.78576C1225.50827,532.1873 1225.9959,530.72441 1225.43623,529.65772C1224.89319,528.71571 1223.48294,528.10063 1222.43564,528.71571C1221.38834,529.31417 1220.66521,530.77429 1221.2415,531.77171C1221.78454,532.78576 1223.48571,533.32326 1224.49699,532.78576zM1222.18351,520.85543C1221.78454,519.75549 1220.46572,518.95478 1219.36301,519.35652C1218.2603,519.75549 1217.26564,521.10756 1217.71726,522.2075C1218.06082,523.21601 1219.61514,524.122 1220.66244,523.67039C1221.78454,523.27419 1222.57972,521.92212 1222.18352,520.85543L1222.18351,520.85543zM1220.15818,511.67356C1220.05013,510.49881 1218.85598,509.5097 1217.72003,509.70364C1216.54251,509.8865 1215.40655,511.03908 1215.57002,512.16673C1215.75011,513.31931 1217.12157,514.42202 1218.20766,514.17267C1219.36578,513.97318 1220.41308,512.77627 1220.15818,511.67356z" fill="#56412D" style="pointer-events:inherit"/></g><image origHeight="56" origWidth="257" xlink:href="o_1cmrt58r726g1s4o10tdtoabh7a.png"  isAdminUploaded="true" templateSrc="http://192.168.0.222/dnb_products/dnb_turnkey/designnbuy/assets/images/uploadedImage/o_1cmrt58r726g1s4o10tdtoabh7a.png#**#412" image_id="412" id="svg_24" preserveAspectRatio="none" height="123.67" width="567.556" y="92.69344" x="57.11111" style="pointer-events:inherit" svgtype="dragImage"/></g><g style="pointer-events:none"><title style="pointer-events:inherit">Border</title><rect fill="none" id="canvas_border" stroke-width="0" stroke="##000000" height="672" width="1440" y="0" x="0" style="pointer-events:inherit"/></g><g style="pointer-events:none"><title style="pointer-events:inherit">Overlay</title></g></svg>
